<svg width="40" height="40" viewBox="0 0 40 40" fill="none" xmlns="http://www.w3.org/2000/svg">
<path d="M23.5 13.4995C22.37 9.16951 21.3725 4.67701 20 0.499512C18.7 4.68451 17.6175 9.17451 16.5 13.4995C14.0075 12.302 11.7475 10.612 9.25 9.49951C10.56 11.927 12.2175 14.2095 13.25 16.7495C8.81 17.787 4.265 18.8945 0 20.2495C4.4725 21.1495 8.745 22.772 13.25 23.4995C12.3875 26.0845 10.5625 28.322 9.25 30.7495C11.8075 29.737 14.04 28.0145 16.5 26.7495C17.6025 31.0895 18.6475 35.567 20 39.7495C21.3675 35.5895 22.4125 31.0795 23.5 26.7495C25.9575 28.107 28.3425 29.5445 30.75 30.9995C29.655 28.497 27.9025 26.2145 26.75 23.7495C31.1025 22.3195 35.7775 21.577 40 19.9995C35.51 19.1795 31.22 17.6095 26.75 16.7495C27.73 14.1745 29.535 11.987 30.75 9.49951C28.25 10.612 25.9975 12.2995 23.5 13.4995Z" fill="#DDB758"/>
</svg>
