<svg width="236" height="40" viewBox="0 0 236 40" fill="none" xmlns="http://www.w3.org/2000/svg">
<g filter="url(#filter0_d_125_539)">
<path d="M18.0003 9.2002C16.6593 13.8967 12.6753 17.8462 8.55029 20.1502C13.1013 21.9337 16.4883 26.3707 18.0003 30.8002C19.4703 26.2327 22.9143 21.9757 27.4503 20.1502C23.1603 17.8522 19.4028 13.9612 18.0003 9.2002Z" fill="white"/>
</g>
<g filter="url(#filter1_d_125_539)">
<path d="M58.0894 14.1854C56.4889 10.6334 51.6409 8.47494 48.6769 11.6729C45.7144 14.8724 47.6449 19.4654 50.6269 21.7979C53.6104 24.1289 56.8324 25.8629 57.9394 29.6354C59.1799 26.0744 62.2099 24.0374 65.2519 21.7979C68.2954 19.5599 70.1539 14.8064 67.2019 11.6729C64.2499 8.53944 59.3809 10.4549 58.0894 14.1854Z" fill="white"/>
</g>
<g filter="url(#filter2_d_125_539)">
<path d="M98.4815 25.0996C100.106 28.3756 104.732 29.3356 106.994 26.2621C109.255 23.1871 107.389 19.1791 104.644 17.1376C101.899 15.0961 99.173 13.3666 98.0315 10.0996C96.959 13.4191 94.148 15.2251 91.394 17.2621C88.6385 19.2976 86.7605 23.4631 89.294 26.4871C91.8275 29.5111 96.1385 28.0501 97.8815 24.9496C97.505 26.7196 96.803 28.4176 95.7815 29.8996C97.331 29.8996 98.882 29.8996 100.432 29.8996C99.374 28.5481 98.423 26.7061 98.4815 25.0996Z" fill="white"/>
</g>
<g filter="url(#filter3_d_125_539)">
<path fill-rule="evenodd" clip-rule="evenodd" d="M137.763 10.6143C136.222 8.27433 133.402 10.6533 133.713 12.8643C134.023 15.0753 134.416 16.8678 136.075 18.4518C137.734 20.0343 138.174 22.2693 137.58 24.3813C137.425 24.9322 137.302 25.4744 137.182 26.0066L137.182 26.0067C136.843 27.5151 136.521 28.9438 135.513 30.2643H140.313C139.343 28.9097 139.035 27.5158 138.705 26.0274C138.575 25.4391 138.441 24.836 138.262 24.2148C137.631 22.0218 138.408 19.8273 139.975 18.2268C141.543 16.6263 142.212 14.6628 142.26 12.4173C142.306 10.1733 139.231 8.61783 137.763 10.6143ZM137.613 21.8648C136.568 21.3599 135.761 20.6696 134.962 19.986C133.944 19.1157 132.939 18.2562 131.473 17.8043C128.856 16.9973 124.912 19.1843 127.713 22.0148C125.926 22.9868 126.868 25.6148 128.662 26.0153C130.456 26.4158 132.454 25.9688 133.825 24.8273C134.247 24.4767 134.617 24.1208 134.974 23.7779C135.778 23.0057 136.514 22.2989 137.613 21.8648ZM144.364 17.8151C146.944 16.9091 151.134 19.3406 148.113 21.8636C151.12 24.3926 146.929 26.9891 144.363 26.0636C142.965 25.5607 141.957 24.6886 140.953 23.8198C140.112 23.0924 139.274 22.3674 138.213 21.8636C139.326 21.3558 140.171 20.6481 141.013 19.9439C141.996 19.1211 142.973 18.3033 144.364 17.8151Z" fill="white"/>
</g>
<g filter="url(#filter4_d_125_539)">
<path d="M180.1 16.0998C179.422 13.5018 178.824 10.8063 178 8.2998C177.22 10.8108 176.571 13.5048 175.9 16.0998C174.405 15.3813 173.049 14.3673 171.55 13.6998C172.336 15.1563 173.331 16.5258 173.95 18.0498C171.286 18.6723 168.559 19.3368 166 20.1498C168.684 20.6898 171.247 21.6633 173.95 22.0998C173.433 23.6508 172.338 24.9933 171.55 26.4498C173.085 25.8423 174.424 24.8088 175.9 24.0498C176.562 26.6538 177.189 29.3403 178 31.8498C178.821 29.3538 179.448 26.6478 180.1 24.0498C181.575 24.8643 183.006 25.7268 184.45 26.5998C183.793 25.0983 182.742 23.7288 182.05 22.2498C184.662 21.3918 187.467 20.9463 190 19.9998C187.306 19.5078 184.732 18.5658 182.05 18.0498C182.638 16.5048 183.721 15.1923 184.45 13.6998C182.95 14.3673 181.599 15.3798 180.1 16.0998Z" fill="white"/>
</g>
<g filter="url(#filter5_d_125_539)">
<path d="M226.854 12.2142C220.29 5.38622 208.614 11.0712 208.854 20.1642C209.094 29.2572 220.807 34.1667 227.154 27.3642C221.923 30.0567 215.196 26.0742 215.004 20.1642C214.812 14.2542 221.335 9.68822 226.854 12.2142Z" fill="white"/>
</g>
<defs>
<filter id="filter0_d_125_539" x="0.550293" y="1.2002" width="34.8999" height="37.6001" filterUnits="userSpaceOnUse" color-interpolation-filters="sRGB">
<feFlood flood-opacity="0" result="BackgroundImageFix"/>
<feColorMatrix in="SourceAlpha" type="matrix" values="0 0 0 0 0 0 0 0 0 0 0 0 0 0 0 0 0 0 127 0" result="hardAlpha"/>
<feOffset/>
<feGaussianBlur stdDeviation="4"/>
<feComposite in2="hardAlpha" operator="out"/>
<feColorMatrix type="matrix" values="0 0 0 0 1 0 0 0 0 1 0 0 0 0 1 0 0 0 1 0"/>
<feBlend mode="normal" in2="BackgroundImageFix" result="effect1_dropShadow_125_539"/>
<feBlend mode="normal" in="SourceGraphic" in2="effect1_dropShadow_125_539" result="shape"/>
</filter>
<filter id="filter1_d_125_539" x="39.1997" y="2.09961" width="37.4897" height="35.5356" filterUnits="userSpaceOnUse" color-interpolation-filters="sRGB">
<feFlood flood-opacity="0" result="BackgroundImageFix"/>
<feColorMatrix in="SourceAlpha" type="matrix" values="0 0 0 0 0 0 0 0 0 0 0 0 0 0 0 0 0 0 127 0" result="hardAlpha"/>
<feOffset/>
<feGaussianBlur stdDeviation="4"/>
<feComposite in2="hardAlpha" operator="out"/>
<feColorMatrix type="matrix" values="0 0 0 0 1 0 0 0 0 1 0 0 0 0 1 0 0 0 1 0"/>
<feBlend mode="normal" in2="BackgroundImageFix" result="effect1_dropShadow_125_539"/>
<feBlend mode="normal" in="SourceGraphic" in2="effect1_dropShadow_125_539" result="shape"/>
</filter>
<filter id="filter2_d_125_539" x="80.1001" y="2.09961" width="35.9033" height="35.7998" filterUnits="userSpaceOnUse" color-interpolation-filters="sRGB">
<feFlood flood-opacity="0" result="BackgroundImageFix"/>
<feColorMatrix in="SourceAlpha" type="matrix" values="0 0 0 0 0 0 0 0 0 0 0 0 0 0 0 0 0 0 127 0" result="hardAlpha"/>
<feOffset/>
<feGaussianBlur stdDeviation="4"/>
<feComposite in2="hardAlpha" operator="out"/>
<feColorMatrix type="matrix" values="0 0 0 0 1 0 0 0 0 1 0 0 0 0 1 0 0 0 1 0"/>
<feBlend mode="normal" in2="BackgroundImageFix" result="effect1_dropShadow_125_539"/>
<feBlend mode="normal" in="SourceGraphic" in2="effect1_dropShadow_125_539" result="shape"/>
</filter>
<filter id="filter3_d_125_539" x="118.75" y="1.6499" width="38.4146" height="36.6143" filterUnits="userSpaceOnUse" color-interpolation-filters="sRGB">
<feFlood flood-opacity="0" result="BackgroundImageFix"/>
<feColorMatrix in="SourceAlpha" type="matrix" values="0 0 0 0 0 0 0 0 0 0 0 0 0 0 0 0 0 0 127 0" result="hardAlpha"/>
<feOffset/>
<feGaussianBlur stdDeviation="4"/>
<feComposite in2="hardAlpha" operator="out"/>
<feColorMatrix type="matrix" values="0 0 0 0 1 0 0 0 0 1 0 0 0 0 1 0 0 0 1 0"/>
<feBlend mode="normal" in2="BackgroundImageFix" result="effect1_dropShadow_125_539"/>
<feBlend mode="normal" in="SourceGraphic" in2="effect1_dropShadow_125_539" result="shape"/>
</filter>
<filter id="filter4_d_125_539" x="158" y="0.299805" width="40" height="39.5498" filterUnits="userSpaceOnUse" color-interpolation-filters="sRGB">
<feFlood flood-opacity="0" result="BackgroundImageFix"/>
<feColorMatrix in="SourceAlpha" type="matrix" values="0 0 0 0 0 0 0 0 0 0 0 0 0 0 0 0 0 0 127 0" result="hardAlpha"/>
<feOffset/>
<feGaussianBlur stdDeviation="4"/>
<feComposite in2="hardAlpha" operator="out"/>
<feColorMatrix type="matrix" values="0 0 0 0 1 0 0 0 0 1 0 0 0 0 1 0 0 0 1 0"/>
<feBlend mode="normal" in2="BackgroundImageFix" result="effect1_dropShadow_125_539"/>
<feBlend mode="normal" in="SourceGraphic" in2="effect1_dropShadow_125_539" result="shape"/>
</filter>
<filter id="filter5_d_125_539" x="200.85" y="1.2002" width="34.3037" height="37.3438" filterUnits="userSpaceOnUse" color-interpolation-filters="sRGB">
<feFlood flood-opacity="0" result="BackgroundImageFix"/>
<feColorMatrix in="SourceAlpha" type="matrix" values="0 0 0 0 0 0 0 0 0 0 0 0 0 0 0 0 0 0 127 0" result="hardAlpha"/>
<feOffset/>
<feGaussianBlur stdDeviation="4"/>
<feComposite in2="hardAlpha" operator="out"/>
<feColorMatrix type="matrix" values="0 0 0 0 1 0 0 0 0 1 0 0 0 0 1 0 0 0 1 0"/>
<feBlend mode="normal" in2="BackgroundImageFix" result="effect1_dropShadow_125_539"/>
<feBlend mode="normal" in="SourceGraphic" in2="effect1_dropShadow_125_539" result="shape"/>
</filter>
</defs>
</svg>
