<svg width="415" height="100" viewBox="0 0 415 100" fill="none" xmlns="http://www.w3.org/2000/svg">
<path fill-rule="evenodd" clip-rule="evenodd" d="M58.4044 32.0212C58.5012 32.2507 58.5714 32.4989 58.6172 32.7659C58.6108 32.8237 58.5757 32.8591 58.5108 32.8723C54.731 31.3178 50.83 30.9455 46.8087 31.7553C39.8672 33.6606 35.2758 38.04 33.0322 44.8935C31.3003 52.4252 33.2322 58.8258 38.83 64.0955C43.8747 68.2272 49.5832 69.5038 55.9576 67.9253C56.8491 67.6339 57.7363 67.3325 58.6172 67.021C58.615 67.2407 58.5799 67.4535 58.5108 67.6593C52.6055 69.9386 46.8608 69.584 41.2768 66.5955C41.2055 66.5601 41.1353 66.5246 41.064 66.4891C40.3385 65.925 39.5938 65.3753 38.83 64.8402C35.7204 62.2579 33.6098 59.0132 32.5002 55.1062C30.5364 45.9911 33.3556 38.7926 40.9577 33.5106C41.1066 33.4468 41.213 33.3404 41.2768 33.1915C41.2832 33.2492 41.3183 33.2846 41.3832 33.2978C46.88 30.3107 52.5353 29.9562 58.3512 32.234C58.4002 32.1708 58.4182 32.0999 58.4044 32.0212Z" fill="black"/>
<path fill-rule="evenodd" clip-rule="evenodd" d="M58.7232 33.1911C58.7934 33.2866 58.8636 33.393 58.936 33.5102C59.0083 33.4716 59.0796 33.4362 59.1487 33.4038C59.1349 33.497 59.17 33.568 59.2551 33.6166C60.4189 34.1395 61.3764 34.8841 62.1274 35.8506C57.7658 32.677 52.9073 31.5245 47.553 32.3932C41.2594 33.8643 36.8445 37.5699 34.3084 43.5102C32.5169 48.636 32.818 53.636 35.2126 58.5101C35.1062 58.5192 35.0179 58.4837 34.9467 58.4037C33.3297 55.8191 32.6743 53 32.9786 49.9463C32.9669 48.5338 33.0914 47.133 33.3509 45.7442C33.6956 44.6619 34.0148 43.5625 34.3084 42.4463C34.7148 41.6691 35.0871 40.8889 35.4254 40.1059C37.7094 36.3863 40.9541 33.9395 45.1594 32.7655C45.2839 32.7114 45.3722 32.6228 45.4254 32.4996C49.2668 31.4064 53.0966 31.4418 56.9147 32.606C57.4945 32.807 58.0615 33.0376 58.6168 33.2975C58.6817 33.2843 58.7168 33.2488 58.7232 33.1911Z" fill="black"/>
<path fill-rule="evenodd" clip-rule="evenodd" d="M99.7871 49.8932C100.071 49.9641 100.071 50.0349 99.7871 50.1059C99.7871 50.0349 99.7871 49.9641 99.7871 49.8932Z" fill="black"/>
<path fill-rule="evenodd" clip-rule="evenodd" d="M58.3509 32.2339C58.3998 32.1707 58.4179 32.0997 58.4041 32.0211C55.6339 21.3392 52.8328 10.6655 49.9999 0C47.0243 11.0493 44.1169 22.1131 41.2765 33.1913C41.2829 33.2491 41.318 33.2845 41.3829 33.2977C46.8797 30.3106 52.535 29.956 58.3509 32.2339ZM32.4999 55.1061C30.5361 45.9909 33.3552 38.7925 40.9573 33.5105C35.0063 30.0026 29.0488 26.492 23.085 22.9786C22.9764 23.032 22.9586 23.1029 23.0318 23.1914C26.552 29.1314 30.0446 35.0888 33.5105 41.0636C33.1988 41.2037 32.8797 41.3279 32.5531 41.436C21.6813 44.2248 10.8303 47.0793 0 49.9998C10.8315 52.9204 21.6825 55.775 32.5531 58.5635C32.8797 58.6716 33.1988 58.7958 33.5105 58.9359C30.0137 64.9552 26.5031 70.9658 22.9786 76.9677C29.0084 73.5092 35.0361 70.0158 41.0637 66.489C40.3382 65.9249 39.5935 65.3752 38.8297 64.8401C35.7201 62.2578 33.6095 59.0131 32.4999 55.1061ZM99.787 50.1061C88.6903 52.9689 77.6095 55.8766 66.5425 58.8295C69.9382 64.8378 73.3956 70.8306 76.9148 76.8081L76.8084 76.9145C71.1456 73.6411 65.5074 70.3428 59.8936 67.0209C61.3053 66.3222 62.5648 65.4002 63.6701 64.255C64.2074 63.6343 64.3138 62.9605 63.9893 62.2337C63.9108 62.1497 63.8277 62.0756 63.7397 62.0114C63.8275 62.0755 63.9106 62.1496 63.9889 62.2335C64.3134 62.9603 64.207 63.634 63.6698 64.2547C62.5644 65.3999 61.3049 66.322 59.8932 67.0207H59.7868C59.5783 66.8803 59.3655 66.7383 59.1485 66.5952C59.1486 66.5951 59.1486 66.5951 59.1487 66.5951C58.9615 66.4406 58.819 66.4762 58.7233 66.7016C58.7232 66.7017 58.7231 66.7017 58.7231 66.7017C58.7485 66.839 58.7123 66.9453 58.6166 67.0207C57.7358 67.3321 56.8485 67.6335 55.9571 67.9249C49.5826 69.5034 43.8741 68.2268 38.8295 64.0951C33.2316 58.8254 31.2997 52.4248 33.0316 44.8931C35.2752 38.0397 39.8667 33.6602 46.8082 31.7549C50.8294 30.9451 54.7305 31.3175 58.5102 32.8719C58.5751 32.8587 58.6102 32.8233 58.6166 32.7655C58.7156 32.8792 58.7517 33.021 58.723 33.1911C58.7166 33.2488 58.6815 33.2843 58.6166 33.2974C58.0613 33.0376 57.4943 32.807 56.9145 32.606C53.0964 31.4418 49.2667 31.4064 45.4252 32.4996C45.372 32.6228 45.2837 32.7114 45.1592 32.7655C40.9539 33.9395 37.7093 36.3863 35.4252 40.1059C32.0944 45.6182 31.6518 51.3629 34.0954 57.3399C36.2285 61.7435 39.2309 64.8355 43.1027 66.6158C39.2311 64.8355 36.2287 61.7435 34.0958 57.34C31.6522 51.363 32.0947 45.6183 35.4255 40.106C35.0872 40.889 34.7149 41.6692 34.3085 42.4464C34.0149 43.5626 33.6958 44.6619 33.3511 45.7443C33.0915 47.1331 32.967 48.5338 32.9787 49.9464C32.6745 53.0001 33.3298 55.8192 34.9468 58.4038C35.0181 58.4838 35.1064 58.5193 35.2128 58.5102C37.867 63.1647 41.8032 66.1611 47.0213 67.4995C52.8136 68.6752 57.9911 67.4165 62.5527 63.7232C62.5527 63.7231 62.5527 63.723 62.5527 63.7228C63.0698 63.2951 63.5134 62.834 63.8825 62.3399C63.6985 62.5474 63.4676 62.6538 63.191 62.659C62.8538 62.6307 62.5176 62.5953 62.1804 62.5526C61.1985 62.6673 60.223 62.8269 59.2549 63.0313C53.0102 63.5179 48.4177 61.018 45.4783 55.5314C44.5478 53.2848 44.1509 51.1128 44.2877 49.0154C44.1508 51.1129 44.5477 53.285 45.4783 55.5317C48.4176 61.0183 53.0101 63.5182 59.2548 63.0317C60.2229 62.8272 61.1984 62.6676 62.1803 62.5529C62.5176 62.5956 62.8537 62.631 63.191 62.6593C62.8686 62.8618 62.5144 63.0037 62.1271 63.0848C60.0803 63.3413 58.024 63.4654 55.9569 63.4572C50.9087 62.5381 47.4102 60.0865 45.4613 56.1027C47.4102 60.0868 50.9088 62.5384 55.9571 63.4575C58.0241 63.4657 60.0805 63.3417 62.1273 63.0852C61.7252 63.2731 61.2996 63.4327 60.8507 63.5639C54.2167 64.8112 49.0571 62.6303 45.372 57.0214C42.4231 51.2416 42.955 45.816 46.9678 40.7449C51.1194 36.3964 56.0655 35.0841 61.8062 36.8082L61.808 36.8084C62.2376 36.8685 62.6269 37.0103 62.9778 37.2337L62.9783 37.2336C63.2985 37.3315 63.5995 37.4734 63.8825 37.6591C63.9538 37.5882 63.9538 37.5173 63.8825 37.4464C63.2761 36.9287 62.691 36.3968 62.1272 35.8506C61.3761 34.8842 60.4187 34.1395 59.2549 33.6166C59.1698 33.568 59.1347 33.497 59.1485 33.4039L59.5726 33.1388L59.9996 32.8719C59.9997 32.872 59.9998 32.8721 60 32.8722C65.6616 29.589 71.318 26.2912 76.968 22.9786C73.5637 28.8986 70.1233 34.8205 66.6489 40.7445C66.5446 40.8784 66.5084 41.0202 66.5425 41.17C77.6095 44.1229 88.6903 47.0306 99.787 49.8934V50.1061ZM61.5086 33.816C62.3157 34.3847 63.0715 35.0275 63.7761 35.7443C64.0261 36.1369 64.1857 36.5625 64.2549 37.0209C64.1559 37.8289 63.6942 38.219 62.8719 38.1911C61.4995 37.8746 60.1166 37.6086 58.723 37.3932C54.506 37.0828 50.9421 38.4481 48.0315 41.4889C44.4507 45.9467 43.8837 50.7694 46.3294 55.9569C47.4661 57.8473 48.8229 59.3296 50.3997 60.4039C48.823 59.3296 47.4664 57.8474 46.3298 55.9572C43.884 50.7696 44.4511 45.9469 48.0319 41.4892C50.9425 38.4483 54.5063 37.083 58.7233 37.3934C60.117 37.6089 61.4999 37.8748 62.8723 38.1913C63.6946 38.2193 64.1563 37.8292 64.2552 37.0211C64.1861 36.5627 64.0265 36.1372 63.7765 35.7445C63.0717 35.0276 62.3158 34.3848 61.5086 33.816ZM41.2765 66.5952C46.8605 69.5837 52.6052 69.9383 58.5105 67.6591C55.6754 78.3601 52.8743 89.0685 50.1062 99.7866H49.8935C47.019 88.7196 44.1467 77.6558 41.2765 66.5952Z" fill="black"/>
<path fill-rule="evenodd" clip-rule="evenodd" d="M49.8936 99.7871C49.9648 99.7871 50.035 99.7871 50.1063 99.7871C50.035 100.071 49.9648 100.071 49.8936 99.7871Z" fill="black"/>
<path fill-rule="evenodd" clip-rule="evenodd" d="M248.241 27.583C249.983 27.768 251.644 28.2425 253.225 29.0063C253.54 29.1652 253.54 29.3218 253.225 29.4807C249.025 30.5506 244.953 31.9739 241.004 33.7506C240.945 33.7115 240.885 33.6718 240.826 33.632C240.767 33.5923 240.707 33.5526 240.648 33.5134C242.866 31.7852 245.077 30.057 247.283 28.332L247.292 28.3252L247.299 28.3195L247.309 28.3119L247.315 28.3074L248.241 27.583ZM293.328 35.1741C293.627 35.4137 293.786 35.7696 293.802 36.2416C293.525 39.5959 293.366 42.9572 293.328 46.3233H292.616C291.989 40.1201 288.589 37.3921 282.412 38.1393C281.909 38.405 281.472 38.7608 281.107 39.2068C280.948 49.011 280.948 58.8175 281.107 68.6216C281.161 69.3902 281.517 69.9833 282.175 70.4008C283.342 70.6759 284.529 70.8349 285.734 70.8752C285.843 70.9725 285.922 71.0911 285.971 71.231C280.832 71.4682 275.692 71.5465 270.547 71.4682V70.7566C271.75 70.7945 272.937 70.6759 274.107 70.4008C274.925 69.9904 275.362 69.3191 275.412 68.3844C275.571 58.7368 275.571 49.0916 275.412 39.444C275.227 39.0194 274.949 38.6636 274.581 38.3766C270.54 37.2189 267.337 38.3647 264.971 41.8162C264.166 43.2419 263.573 44.7458 263.191 46.3233H262.479C262.892 42.6986 263.129 39.0597 263.191 35.4114C263.78 35.575 264.254 35.9309 264.615 36.4788C264.771 36.5177 264.929 36.5571 265.086 36.5965L265.089 36.5973C265.247 36.6371 265.406 36.6769 265.564 36.716C274.028 36.875 282.49 36.875 290.955 36.716C292.049 36.6093 292.839 36.0945 293.328 35.1741ZM136 36.8343H122V37.5459C123.053 37.4772 124.081 37.5958 125.085 37.9018C125.634 38.1651 125.99 38.5992 126.153 39.2065C126.311 49.1695 126.311 59.1326 126.153 69.0957C125.99 69.703 125.634 70.1371 125.085 70.4004C124.081 70.7064 123.053 70.825 122 70.7562V71.4679C130.995 71.5462 139.973 71.4679 148.933 71.2307C148.961 68.2915 149.159 65.3643 149.526 62.4537C149.537 62.0978 149.379 61.8606 149.052 61.742C147.757 66.2396 144.83 68.9676 140.272 69.926C137.899 70.0849 135.526 70.0849 133.153 69.926C132.56 69.6484 132.125 69.2143 131.848 68.6213C131.69 58.7365 131.69 48.854 131.848 38.9692C131.958 38.63 132.156 38.3525 132.441 38.139C133.562 37.6076 134.748 37.4107 136 37.5459V36.8343ZM151.899 36.8346C156.569 36.7563 161.236 36.8346 165.9 37.0718C165.85 37.2118 165.771 37.3304 165.663 37.4276C164.493 37.4181 163.385 37.6553 162.34 38.1393C161.801 38.6944 161.524 39.3681 161.51 40.1556C161.352 46.4015 161.352 52.6498 161.51 58.8957C161.961 67.3359 166.351 71.0127 174.68 69.9263C178.683 68.7686 181.016 66.1213 181.68 61.9795C182.061 55.4228 182.14 48.8614 181.917 42.2906C181.533 39.2566 179.833 37.6743 176.815 37.5462V36.8346C180.694 36.7563 184.57 36.8346 188.443 37.0718C185.947 37.5486 184.405 39.0526 183.816 41.5789L183.578 61.5051C181.89 68.7568 177.303 72.315 169.815 72.1798C164.736 72.3886 160.781 70.4125 157.95 66.2494C157.161 64.7502 156.607 63.1703 156.289 61.5051L156.052 39.444C155.796 38.6351 155.282 38.042 154.51 37.6648C153.643 37.5462 152.773 37.5059 151.899 37.5462V36.8346ZM197.935 42.5279C197.698 50.2374 197.619 57.9848 197.697 65.7749C197.382 57.9848 197.382 50.1566 197.697 42.2906C197.697 42.2906 197.697 42.2906 197.697 42.2906C197.382 50.1566 197.382 57.9848 197.697 65.775C197.655 68.8944 199.158 70.5549 202.206 70.7565V71.4682H191.053V70.7565C193.758 70.7281 195.379 69.383 195.918 66.7238C196.076 57.9468 196.076 49.1698 195.918 40.3928C194.47 38.7038 192.69 37.596 190.578 37.0718C193.977 36.7943 197.378 36.7563 200.782 36.9532C208.01 45.6804 215.326 54.3388 222.732 62.9284C222.891 55.8902 222.891 48.8543 222.732 41.8161C222.25 39.1593 220.708 37.5794 218.105 37.0718C221.74 36.8346 225.378 36.7563 229.02 36.8346V37.5462C226.325 37.6696 224.782 39.0929 224.393 41.8161C224.275 52.0164 224.234 62.2167 224.275 72.417C223.537 72.2771 222.943 71.8809 222.495 71.2309C214.346 61.6237 206.159 52.0568 197.935 42.5279ZM232.105 36.8343C240.014 36.794 247.926 36.8343 255.835 36.9529C256.07 39.503 256.148 42.0744 256.072 44.6624H255.36C254.335 39.8944 251.369 37.7594 246.462 38.2576C246.007 38.2777 245.552 38.2973 245.097 38.3169C244.642 38.3365 244.187 38.356 243.733 38.3762C242.917 38.6371 242.323 39.1519 241.953 39.9181C241.835 44.188 241.794 48.4579 241.835 52.7278C244.613 52.8132 247.383 52.6946 250.14 52.3719C252.19 51.8667 253.218 50.562 253.225 48.4579H253.937V58.8954H253.225C253.127 56.305 251.782 54.7631 249.191 54.2697C246.739 54.1511 244.288 54.1107 241.835 54.1511C241.794 58.7388 241.835 63.3242 241.953 67.9096C242.008 68.6782 242.364 69.2712 243.021 69.6887C246.063 70.2581 249.07 70.0991 252.038 69.2143C254.827 67.8906 256.488 65.7154 257.021 62.6909H257.733C257.491 65.5896 257.254 68.4742 257.021 71.3493C248.716 71.5461 240.411 71.5082 232.105 71.2306C232.155 71.0907 232.234 70.9721 232.343 70.8748C233.496 70.8298 234.602 70.5925 235.665 70.1632C235.995 69.8856 236.194 69.5298 236.258 69.0957C236.529 64.1236 236.647 59.1421 236.614 54.1511C236.645 49.0818 236.526 44.0219 236.258 38.9692C236.073 38.5446 235.795 38.1888 235.428 37.9018C234.414 37.6574 233.384 37.4985 232.343 37.4273C232.165 37.2684 232.084 37.0715 232.105 36.8343ZM353.838 36.8343H339.838V37.5459C340.711 37.5056 341.582 37.5459 342.448 37.6646C343.279 37.8614 343.794 38.3762 343.99 39.2065C344.149 49.1695 344.149 59.1326 343.99 69.0957C343.725 69.5986 343.369 70.0351 342.923 70.4004C341.909 70.6566 340.882 70.7752 339.838 70.7562V71.4679H353.838V70.7562C353.043 70.7966 352.253 70.7562 351.465 70.6376C350.756 70.5404 350.241 70.1845 349.923 69.5701C349.65 64.3633 349.531 59.1445 349.567 53.9139C349.587 51.4622 349.607 49.0112 349.626 46.5602C349.646 44.1091 349.665 41.6581 349.686 39.2065C350.637 37.6693 352.021 37.1166 353.838 37.5459V36.8343ZM357.872 36.8343H371.873V37.5459C370.62 37.4107 369.433 37.6076 368.313 38.139C368.029 38.3525 367.832 38.63 367.72 38.9692C367.561 48.854 367.561 58.7365 367.72 68.6213C367.998 69.2143 368.432 69.6484 369.025 69.926C371.398 70.0849 373.771 70.0849 376.144 69.926C380.702 68.9676 383.628 66.2396 384.924 61.742C385.251 61.8606 385.41 62.0978 385.399 62.4537C385.031 65.3643 384.834 68.2915 384.805 71.2307C375.845 71.4679 366.868 71.5462 357.872 71.4679V70.7562C358.926 70.825 359.953 70.7064 360.957 70.4004C361.505 70.1371 361.861 69.703 362.025 69.0957C362.184 59.1326 362.184 49.1695 362.025 39.2065C361.861 38.5992 361.505 38.1651 360.957 37.9018C359.953 37.5958 358.926 37.4772 357.872 37.5459V36.8343ZM412.213 36.9529C404.304 36.8343 396.392 36.794 388.483 36.8343C388.462 37.0715 388.543 37.2684 388.721 37.4273C389.762 37.4985 390.792 37.6574 391.806 37.9018C392.173 38.1888 392.451 38.5446 392.636 38.9692C392.904 44.0219 393.023 49.0818 392.992 54.1511C393.025 59.1421 392.907 64.1236 392.636 69.0957C392.572 69.5298 392.373 69.8856 392.043 70.1632C390.98 70.5925 389.874 70.8298 388.721 70.8748C388.612 70.9721 388.533 71.0907 388.483 71.2306C396.789 71.5082 405.094 71.5461 413.399 71.3493C413.632 68.4742 413.869 65.5896 414.111 62.6909H413.399C412.866 65.7154 411.204 67.8906 408.416 69.2143C405.448 70.0991 402.441 70.2581 399.399 69.6887C398.742 69.2712 398.386 68.6782 398.331 67.9096C398.213 63.3242 398.172 58.7388 398.213 54.1511C400.666 54.1107 403.117 54.1511 405.569 54.2697C408.16 54.7631 409.505 56.305 409.603 58.8954H410.315V48.4579H409.603C409.596 50.562 408.568 51.8667 406.518 52.3719C403.761 52.6946 400.991 52.8132 398.213 52.7278C398.172 48.4579 398.213 44.188 398.331 39.9181C398.701 39.1519 399.295 38.6371 400.111 38.3762C400.565 38.356 401.02 38.3365 401.475 38.3169C401.93 38.2973 402.385 38.2777 402.84 38.2576C407.747 37.7594 410.713 39.8944 411.738 44.6624H412.45C412.526 42.0744 412.448 39.503 412.213 36.9529ZM334.261 48.9325C331.041 39.7072 324.515 35.4373 314.684 36.1229C312.776 36.4811 310.878 36.9958 308.989 37.6648C302.834 40.1793 299.115 44.6864 297.836 51.1861C296.949 58.9715 299.637 65.1392 305.904 69.689C312.489 73.0219 319.053 72.9436 325.6 69.4518C333.146 64.622 336.031 57.7831 334.261 48.9325ZM326.193 44.1882C323.253 39.3775 318.944 37.1643 313.261 37.5462C307.779 38.9576 304.654 42.5159 303.887 48.2209C303.154 53.6081 303.944 58.7462 306.26 63.64C307.829 66.6313 310.164 68.8066 313.261 70.1634C318.393 71.6603 322.627 70.3556 325.956 66.2494C329.826 58.9502 329.905 51.5965 326.193 44.1882Z" fill="black"/>
</svg>
