<svg width="200" height="49" viewBox="0 0 200 49" fill="none" xmlns="http://www.w3.org/2000/svg">
<path fill-rule="evenodd" clip-rule="evenodd" d="M28.2076 15.4642C28.2543 15.575 28.2882 15.6949 28.3103 15.8239C28.3072 15.8518 28.2903 15.8689 28.2589 15.8752C26.4334 15.1245 24.5494 14.9447 22.6073 15.3358C19.2548 16.256 17.0373 18.3711 15.9537 21.681C15.1173 25.3185 16.0503 28.4098 18.7539 30.9549C21.1903 32.9503 23.9472 33.5668 27.0258 32.8045C27.4564 32.6638 27.8849 32.5182 28.3103 32.3678C28.3093 32.4739 28.2923 32.5766 28.2589 32.676C25.4069 33.7768 22.6325 33.6056 19.9356 32.1622C19.9012 32.1451 19.8673 32.128 19.8328 32.1109C19.4824 31.8384 19.1228 31.5729 18.7539 31.3145C17.2521 30.0673 16.2327 28.5003 15.6969 26.6134C14.7484 22.2111 16.1099 18.7345 19.7815 16.1835C19.8534 16.1527 19.9048 16.1013 19.9356 16.0294C19.9387 16.0573 19.9556 16.0744 19.987 16.0808C22.6417 14.6381 25.373 14.4669 28.1819 15.567C28.2055 15.5365 28.2142 15.5022 28.2076 15.4642Z" fill="white"/>
<path fill-rule="evenodd" clip-rule="evenodd" d="M28.3612 16.0305C28.3951 16.0766 28.429 16.128 28.4639 16.1846C28.4989 16.166 28.5333 16.1489 28.5667 16.1332C28.56 16.1783 28.5769 16.2125 28.6181 16.236C29.1801 16.4885 29.6425 16.8482 30.0053 17.315C27.8988 15.7822 25.5523 15.2256 22.9664 15.6451C19.9268 16.3556 17.7946 18.1453 16.5698 21.0142C15.7045 23.4898 15.8499 25.9046 17.0065 28.2586C16.9551 28.263 16.9124 28.2458 16.878 28.2072C16.0971 26.959 15.7806 25.5974 15.9275 24.1226C15.9219 23.4404 15.982 22.7639 16.1073 22.0932C16.2738 21.5704 16.4279 21.0395 16.5698 20.5004C16.766 20.1251 16.9458 19.7482 17.1092 19.3701C18.2123 17.5736 19.7794 16.3919 21.8104 15.825C21.8705 15.7988 21.9131 15.756 21.9388 15.6965C23.7941 15.1686 25.6437 15.1857 27.4877 15.7479C27.7677 15.845 28.0416 15.9563 28.3098 16.0819C28.3411 16.0755 28.3581 16.0584 28.3612 16.0305Z" fill="white"/>
<path fill-rule="evenodd" clip-rule="evenodd" d="M48.1934 24.0957C48.3305 24.1299 48.3305 24.164 48.1934 24.1981C48.1934 24.164 48.1934 24.1299 48.1934 24.0957Z" fill="white"/>
<path fill-rule="evenodd" clip-rule="evenodd" d="M28.181 15.5677C28.2046 15.5372 28.2133 15.5029 28.2067 15.465C26.8688 10.306 25.516 5.15101 24.1478 0C22.7107 5.33638 21.3065 10.6798 19.9347 16.0301C19.9378 16.058 19.9547 16.0751 19.9861 16.0815C22.6408 14.6388 25.3721 14.4676 28.181 15.5677ZM15.6962 26.6135C14.7477 22.2112 16.1093 18.7346 19.7808 16.1836C16.9067 14.4895 14.0295 12.794 11.1492 11.0971C11.0967 11.1229 11.0881 11.1571 11.1235 11.1999C12.8236 14.0687 14.5104 16.9459 16.1843 19.8315C16.0337 19.8992 15.8796 19.9591 15.7219 20.0113C10.4712 21.3582 5.23061 22.7368 0 24.1473C5.23117 25.5578 10.4718 26.9365 15.7219 28.2833C15.8796 28.3355 16.0337 28.3954 16.1843 28.4631C14.4955 31.3702 12.8 34.2731 11.0978 37.1718C14.0099 35.5014 16.9211 33.8143 19.8322 32.111C19.4818 31.8385 19.1221 31.573 18.7532 31.3146C17.2514 30.0674 16.2321 28.5004 15.6962 26.6135ZM48.1931 24.0959V24.1987C42.8338 25.5813 37.4822 26.9856 32.1372 28.4117C33.7773 31.3135 35.4471 34.2078 37.1467 37.0947L37.0953 37.1461C34.3606 35.5652 31.6377 33.9724 28.9266 32.3682C28.9264 32.3682 28.9263 32.3683 28.9261 32.3684H28.8748C28.7743 32.3007 28.6719 32.2324 28.5674 32.1634C28.5672 32.1635 28.567 32.1636 28.5669 32.1637C28.4764 32.089 28.4076 32.1062 28.3613 32.2151C28.3613 32.2151 28.3612 32.2152 28.3612 32.2152C28.3728 32.2806 28.3552 32.3314 28.3094 32.3674C27.884 32.5179 27.4555 32.6634 27.025 32.8042C23.9464 33.5665 21.1894 32.95 18.753 30.9545C16.0495 28.4094 15.1164 25.3182 15.9529 21.6807C17.0364 18.3708 19.2539 16.2556 22.6064 15.3355C24.5485 14.9444 26.4326 15.1242 28.2581 15.8749C28.2894 15.8686 28.3064 15.8515 28.3094 15.8236C28.3572 15.8784 28.3747 15.9469 28.3608 16.0291C28.3577 16.057 28.3408 16.0741 28.3094 16.0804C28.0412 15.9549 27.7674 15.8436 27.4874 15.7465C25.6434 15.1843 23.7938 15.1671 21.9385 15.6951C21.9128 15.7546 21.8701 15.7974 21.81 15.8236C19.779 16.3905 18.212 17.5722 17.1089 19.3687C15.6839 21.727 15.3535 24.1734 16.117 26.7078C15.3541 24.174 15.6847 21.7282 17.1094 19.3705C16.946 19.7486 16.7662 20.1254 16.5699 20.5008C16.4281 21.0398 16.274 21.5708 16.1075 22.0935C15.9822 22.7643 15.9221 23.4408 15.9277 24.123C15.7808 25.5978 16.0973 26.9593 16.8782 28.2076C16.9126 28.2462 16.9553 28.2634 17.0067 28.2589C18.2886 30.5069 20.1896 31.954 22.7097 32.6004C25.5071 33.1682 28.0075 32.5604 30.2106 30.7768C30.2106 30.7764 30.2106 30.776 30.2106 30.7756C30.4603 30.569 30.6746 30.3464 30.8528 30.1077C30.764 30.208 30.6525 30.2593 30.5189 30.2619L30.5185 30.2618C30.3629 30.3595 30.1919 30.428 30.005 30.4672L30.0039 30.4673C29.8099 30.5579 29.6047 30.6348 29.3882 30.6981C26.1842 31.3005 23.6924 30.2472 21.9126 27.5383C20.4884 24.7469 20.7453 22.1266 22.6833 19.6774C24.6886 17.577 27.0777 16.9433 29.8506 17.7764C29.0496 17.6718 28.2445 17.6032 27.4358 17.5709C26.3358 17.649 25.3082 17.9658 24.3531 18.5214C22.1068 20.0089 21.0705 22.1069 21.2447 24.8153C21.5062 26.3346 22.0581 27.5669 22.9002 28.5122C22.0582 27.567 21.5064 26.3348 21.2449 24.8155C21.0707 22.1071 22.107 20.0092 24.3533 18.5217C25.3085 17.9661 26.336 17.6493 27.436 17.5712C28.2447 17.6035 29.0499 17.672 29.8508 17.7767C30.0584 17.8057 30.2465 17.8742 30.416 17.9822C30.1951 18.0317 29.9726 18.0402 29.7481 18.0079C27.061 17.3169 24.7746 17.9763 22.889 19.986C21.2521 22.078 20.9438 24.3558 21.9642 26.8193C22.0102 26.9052 22.0571 26.9896 22.1048 27.0724C22.0571 26.9896 22.0103 26.9053 21.9643 26.8195C20.944 24.3559 21.2522 22.0782 22.8892 19.9861C24.7748 17.9765 27.0611 17.3171 29.7482 18.0081C29.9727 18.0404 30.1952 18.0318 30.4161 17.9824C30.5708 18.0296 30.7162 18.0982 30.8528 18.1879C30.8873 18.1536 30.8873 18.1194 30.8528 18.0851C30.56 17.8351 30.2774 17.5782 30.0051 17.3145C29.6424 16.8477 29.18 16.488 28.6179 16.2355C28.5768 16.212 28.5598 16.1778 28.5665 16.1327L28.9775 15.8759C29.649 16.2467 30.2569 16.7091 30.8015 17.2631C30.9221 17.4526 30.9992 17.6579 31.0326 17.8791C31.0326 17.8791 31.0326 17.8791 31.0326 17.8791C30.9992 17.6577 30.9221 17.4522 30.8014 17.2626C30.2568 16.7086 29.649 16.2462 28.9775 15.8753C31.7118 14.2897 34.4436 12.697 37.1724 11.0971C35.5282 13.9562 33.8667 16.8163 32.1886 19.6773C32.1383 19.742 32.1208 19.8105 32.1372 19.8829C37.4822 21.309 42.8338 22.7133 48.1931 24.0959ZM30.9856 30.3343C30.9736 30.2434 30.9464 30.1505 30.9042 30.0558C30.7526 29.8935 30.5645 29.8078 30.339 29.7989C29.6849 29.956 29.0258 30.0844 28.3609 30.1843C25.7216 30.3249 23.7266 29.2716 22.3753 27.0245C22.0327 26.2979 21.8126 25.5862 21.7148 24.8892C21.8125 25.5863 22.0327 26.2983 22.3754 27.025C23.7266 29.2721 25.7217 30.3254 28.361 30.1848C29.0258 30.085 29.685 29.9565 30.3391 29.7994C30.5646 29.8083 30.7527 29.894 30.9042 30.0563C30.9464 30.1509 30.9735 30.2435 30.9856 30.3343ZM19.9347 32.1633C22.6316 33.6066 25.406 33.7779 28.258 32.6771C26.8888 37.8453 25.536 43.017 24.1991 48.1934H24.0964C22.7081 42.8485 21.3209 37.5052 19.9347 32.1633Z" fill="white"/>
<path fill-rule="evenodd" clip-rule="evenodd" d="M24.0967 48.1929C24.1311 48.1929 24.165 48.1929 24.1994 48.1929C24.165 48.3296 24.1311 48.3296 24.0967 48.1929Z" fill="white"/>
<path fill-rule="evenodd" clip-rule="evenodd" d="M119.891 13.3213C120.732 13.4107 121.534 13.6398 122.298 14.0087C122.45 14.0854 122.45 14.1611 122.298 14.2378C120.269 14.7545 118.302 15.4419 116.395 16.3C116.367 16.2811 116.338 16.2619 116.309 16.2427C116.281 16.2235 116.252 16.2044 116.223 16.1854C117.3 15.3468 118.372 14.5082 119.443 13.6712L119.891 13.3213ZM141.666 16.9885C141.81 17.1042 141.887 17.276 141.895 17.504C141.761 19.124 141.684 20.7474 141.666 22.3731H141.322C141.02 19.3772 139.377 18.0597 136.394 18.4205C136.151 18.5489 135.94 18.7207 135.764 18.9361C135.687 23.6711 135.687 28.4073 135.764 33.1423C135.79 33.5135 135.962 33.7999 136.279 34.0016C136.843 34.1345 137.416 34.2112 137.999 34.2307C138.051 34.2777 138.089 34.3349 138.113 34.4025C135.631 34.5171 133.148 34.5549 130.664 34.5171V34.1734C131.245 34.1917 131.818 34.1345 132.383 34.0016C132.778 33.8034 132.989 33.4791 133.013 33.0277C133.09 28.3683 133.09 23.7101 133.013 19.0507C132.924 18.8456 132.79 18.6737 132.612 18.5351C130.66 17.976 129.113 18.5294 127.971 20.1963C127.582 20.8849 127.296 21.6112 127.111 22.3731H126.767C126.967 20.6225 127.081 18.8651 127.111 17.103C127.395 17.1821 127.625 17.3539 127.799 17.6186C127.875 17.6375 127.952 17.6567 128.028 17.6759C128.105 17.6951 128.181 17.7143 128.257 17.7331C132.345 17.8099 136.432 17.8099 140.52 17.7331C141.048 17.6816 141.43 17.433 141.666 16.9885ZM65.6831 17.7902H58.9214V18.1339C59.4298 18.1007 59.9265 18.158 60.4112 18.3058C60.6766 18.433 60.8485 18.6426 60.927 18.9359C61.0034 23.7477 61.0034 28.5595 60.927 33.3713C60.8485 33.6645 60.6766 33.8742 60.4112 34.0014C59.9265 34.1492 59.4298 34.2064 58.9214 34.1732V34.5169C63.2656 34.5547 67.6014 34.5169 71.929 34.4023C71.9424 32.9829 72.038 31.5691 72.2155 30.1634C72.2209 29.9915 72.1446 29.877 71.9863 29.8197C71.361 31.9919 69.9475 33.3094 67.746 33.7722C66.5999 33.849 65.4539 33.849 64.3078 33.7722C64.0213 33.6382 63.8112 33.4285 63.6775 33.1421C63.601 28.3681 63.601 23.5953 63.6775 18.8213C63.7308 18.6575 63.8264 18.5235 63.964 18.4204C64.5053 18.1637 65.0783 18.0686 65.6831 18.1339V17.7902ZM73.3613 17.789C75.6165 17.7512 77.8705 17.789 80.123 17.9035C80.0991 17.9711 80.0608 18.0284 80.0084 18.0754C79.4434 18.0708 78.9085 18.1854 78.4039 18.4191C78.1433 18.6872 78.0096 19.0125 78.0028 19.3929C77.9264 22.4094 77.9264 25.4271 78.0028 28.4436C78.2208 32.5199 80.341 34.2957 84.3634 33.771C86.2968 33.2119 87.4238 31.9333 87.7442 29.933C87.9282 26.7664 87.9663 23.5975 87.8588 20.424C87.6734 18.9587 86.852 18.1945 85.3948 18.1327V17.789C87.2683 17.7512 89.1401 17.789 91.0105 17.9035C89.8052 18.1338 89.0602 18.8602 88.7757 20.0803L88.6611 29.7039C87.8458 33.2061 85.6301 34.9246 82.014 34.8593C79.5608 34.9602 77.6506 34.0058 76.2838 31.9952C75.9023 31.2711 75.635 30.5081 75.4815 29.7039L75.3669 19.0492C75.2435 18.6585 74.9951 18.3721 74.622 18.1899C74.2034 18.1327 73.7833 18.1132 73.3613 18.1327V17.789ZM95.5949 20.5386C95.595 20.5388 95.595 20.5389 95.595 20.5391C95.4806 24.2625 95.4423 28.0042 95.4804 31.7666C95.328 28.0042 95.328 24.2235 95.4804 20.4245C95.5428 20.4369 95.5799 20.4695 95.5919 20.5207C95.5801 20.4692 95.5429 20.4364 95.4803 20.424C95.3278 24.223 95.3278 28.0037 95.4803 31.7661C95.46 33.2726 96.1859 34.0746 97.6578 34.1719V34.5156H92.2713V34.1719C93.5775 34.1582 94.3607 33.5086 94.6207 32.2243C94.6972 27.9854 94.6972 23.7464 94.6207 19.5075C93.9215 18.6917 93.062 18.1567 92.0421 17.9035C93.6835 17.7695 95.3261 17.7512 96.9701 17.8462C100.461 22.0611 103.994 26.2428 107.571 30.3913C107.648 26.9921 107.648 23.594 107.571 20.1949C107.338 18.9117 106.593 18.1487 105.336 17.9035C107.092 17.789 108.849 17.7512 110.608 17.789V18.1327C109.306 18.1922 108.561 18.8796 108.373 20.1949C108.316 25.1212 108.297 30.0476 108.316 34.9739C107.96 34.9063 107.673 34.715 107.456 34.4011C103.521 29.7612 99.5671 25.1407 95.5949 20.5386ZM112.098 17.7894C115.918 17.7699 119.739 17.7894 123.559 17.8467C123.672 19.0783 123.71 20.3202 123.673 21.5701H123.329C122.834 19.2673 121.402 18.2362 119.032 18.4768C118.812 18.4865 118.592 18.496 118.373 18.5054C118.153 18.5149 117.933 18.5244 117.714 18.5341C117.319 18.6601 117.033 18.9087 116.854 19.2788C116.797 21.341 116.777 23.4032 116.797 25.4654C118.139 25.5066 119.476 25.4493 120.808 25.2935C121.798 25.0495 122.294 24.4194 122.298 23.4032H122.642V28.4441H122.298C122.251 27.193 121.601 26.4483 120.35 26.21C119.166 26.1528 117.982 26.1333 116.797 26.1528C116.777 28.3685 116.797 30.583 116.854 32.7976C116.881 33.1688 117.052 33.4552 117.37 33.6568C118.839 33.9318 120.291 33.855 121.725 33.4277C123.071 32.7884 123.874 31.7379 124.132 30.2771H124.475C124.358 31.6771 124.244 33.0703 124.132 34.4588C120.12 34.5539 116.109 34.5356 112.098 34.4015C112.122 34.3339 112.16 34.2766 112.213 34.2297C112.77 34.2079 113.304 34.0933 113.817 33.886C113.976 33.7519 114.073 33.5801 114.104 33.3704C114.234 30.9691 114.292 28.5632 114.276 26.1528C114.29 23.7045 114.233 21.2608 114.104 18.8205C114.014 18.6154 113.88 18.4436 113.703 18.305C113.213 18.187 112.716 18.1102 112.213 18.0758C112.127 17.9991 112.088 17.904 112.098 17.7894ZM170.89 17.7902H164.128V18.1339C164.55 18.1145 164.971 18.1339 165.389 18.1912C165.79 18.2863 166.039 18.5349 166.134 18.9359C166.211 23.7477 166.211 28.5595 166.134 33.3712C166.005 33.6141 165.834 33.8249 165.618 34.0014C165.129 34.1251 164.632 34.1824 164.128 34.1732V34.5169H170.89V34.1732C170.506 34.1927 170.124 34.1732 169.744 34.1159C169.401 34.069 169.152 33.8971 168.999 33.6004C168.867 31.0857 168.81 28.5652 168.827 26.039C168.837 24.855 168.846 23.6712 168.856 22.4874C168.865 21.3037 168.875 20.1199 168.884 18.9359C169.344 18.1935 170.012 17.9266 170.89 18.1339V17.7902ZM172.839 17.7902H179.601V18.1339C178.995 18.0686 178.422 18.1637 177.882 18.4204C177.744 18.5235 177.649 18.6575 177.595 18.8213C177.518 23.5953 177.518 28.3681 177.595 33.1421C177.729 33.4285 177.939 33.6382 178.225 33.7722C179.371 33.849 180.517 33.849 181.663 33.7722C183.865 33.3094 185.278 31.9919 185.904 29.8197C186.062 29.877 186.139 29.9915 186.133 30.1634C185.955 31.5691 185.86 32.9829 185.847 34.4023C181.519 34.5169 177.184 34.5547 172.839 34.5169V34.1732C173.348 34.2064 173.844 34.1492 174.329 34.0014C174.593 33.8742 174.765 33.6645 174.844 33.3713C174.921 28.5595 174.921 23.7477 174.844 18.9359C174.765 18.6426 174.593 18.433 174.329 18.3058C173.844 18.158 173.348 18.1007 172.839 18.1339V17.7902ZM199.083 17.8467C195.264 17.7894 191.443 17.7699 187.623 17.7894C187.613 17.904 187.651 17.9991 187.737 18.0758C188.241 18.1102 188.738 18.187 189.227 18.305C189.405 18.4436 189.539 18.6154 189.628 18.8205C189.758 21.2608 189.815 23.7045 189.8 26.1528C189.816 28.5632 189.759 30.9691 189.628 33.3704C189.597 33.5801 189.501 33.7519 189.342 33.886C188.828 34.0933 188.294 34.2079 187.737 34.2297C187.685 34.2766 187.647 34.3339 187.623 34.4015C191.634 34.5356 195.645 34.5539 199.656 34.4588C199.769 33.0703 199.883 31.6771 200 30.2771H199.656C199.398 31.7379 198.596 32.7884 197.25 33.4277C195.816 33.855 194.364 33.9318 192.895 33.6568C192.577 33.4552 192.405 33.1688 192.379 32.7976C192.322 30.583 192.302 28.3685 192.322 26.1528C193.507 26.1333 194.69 26.1528 195.874 26.21C197.126 26.4483 197.776 27.193 197.823 28.4441H198.166V23.4032H197.823C197.819 24.4194 197.323 25.0495 196.333 25.2935C195.001 25.4493 193.664 25.5066 192.322 25.4654C192.302 23.4032 192.322 21.341 192.379 19.2788C192.558 18.9087 192.844 18.6601 193.238 18.5341C193.458 18.5244 193.678 18.5149 193.898 18.5054C194.117 18.496 194.337 18.4865 194.556 18.4768C196.926 18.2362 198.359 19.2673 198.854 21.5701H199.198C199.235 20.3202 199.197 19.0783 199.083 17.8467ZM161.435 23.6326C159.88 19.1771 156.728 17.1149 151.98 17.446C151.059 17.619 150.142 17.8676 149.229 18.1907C146.257 19.4051 144.461 21.5818 143.843 24.721C143.414 28.481 144.713 31.4597 147.74 33.6571C150.92 35.2668 154.09 35.229 157.252 33.5426C160.896 31.21 162.29 27.907 161.435 23.6326ZM157.539 21.3409C156.119 19.0175 154.038 17.9486 151.293 18.1331C148.646 18.8147 147.137 20.5332 146.766 23.2886C146.412 25.8904 146.794 28.3719 147.912 30.7354C148.67 32.18 149.798 33.2306 151.293 33.8859C153.772 34.6088 155.817 33.9787 157.425 31.9956C159.294 28.4704 159.332 24.9188 157.539 21.3409Z" fill="white"/>
</svg>
